<svg width="60" height="80" viewBox="0 0 60 80" xmlns="http://www.w3.org/2000/svg">
    <!-- Oxygen Tank -->
    <rect x="15" y="15" width="20" height="45" rx="10" fill="#2c3e50" />
    <rect x="35" y="15" width="10" height="45" rx="5" fill="#34495e" />
    
    <!-- Torso -->
    <path d="M10,25 Q15,15 30,15 T50,25 L55,55 Q55,65 30,65 T5,55 Z" fill="#2980b9" />
    <path d="M15,25 Q15,20 30,20 T45,25 L48,50 Q48,58 30,58 T12,50 Z" fill="#3498db" />
    
    <!-- Helmet -->
    <circle cx="30" cy="12" r="14" fill="#2c3e50" />
    <circle cx="30" cy="12" r="11" fill="#ecf0f1" />
    <path d="M22,7 Q30,2 38,7" stroke="#2980b9" stroke-width="2" fill="none" />
    
    <!-- Suit Details -->
    <rect x="20" y="30" width="20" height="5" rx="2" fill="#f1c40f" />
</svg>
